<?xml version="1.0" encoding="UTF-8" standalone="no"?>
<svg width="769px" height="75px" viewBox="0 0 769 75" version="1.1" xmlns="http://www.w3.org/2000/svg" xmlns:xlink="http://www.w3.org/1999/xlink">
    <!-- Generator: Sketch 3.8.3 (29802) - http://www.bohemiancoding.com/sketch -->
    <title>Group</title>
    <desc>Created with Sketch.</desc>
    <defs></defs>
    <g id="Page-1" stroke="none" stroke-width="1" fill="none" fill-rule="evenodd">
        <g id="Group" transform="translate(-3.000000, -29.000000)" stroke="#000000">
            <polyline id="Path-1" fill="#403C3C" points="5.29101562 69.1933594 21.3798828 51.2158203 36.1708984 71.9951172 45.3974609 74.6181641 49.0332031 84.1855469 54.156415 90.1938935 67.0507812 78.7988281 67.0507812 97.7773438 46.8164062 97.4746094 45.3974609 74.6181641 26.5253906 74.6181641 26.2753906 98.0390625 5.89648438 97.7773438"></polyline>
            <polyline id="Path-2" fill="#403D3D" points="86.9101562 68.1035156 104.683594 46.921875 106.183594 98.7167969 86.9101562 98.7167969"></polyline>
            <polyline id="Path-3" fill="#403D3D" points="125.129883 54.8876953 141.681641 84.0771484 159.28418 49.1044922 191.318359 98.8261719 168.136719 99.1630859 153.678711 73.6494141 143.245117 84.8271484 143.34375 98.3144531 124.389648 98.1865234"></polyline>
            <polyline id="Path-4" fill="#403D3D" points="202.999023 83.7080078 218.492188 61.2988281 225.189453 70.4082031 220.672852 71.6337891 221.371094 82.7880859 233.125 82.8759766 240.493164 95.9794922 255.196289 82.8759766 255.196289 99.7832031 202.428711 98.4677734"></polyline>
            <path d="M286.231445,63.2636719 L304.650391,39.9072266 L310.443359,49.3525391 C310.443359,49.3525391 306.944579,50.1708558 306.092773,52.8945312 C305.240968,55.6182067 306.092773,63.2636719 306.092773,63.2636719 L304.825195,98.1240234 L286.504883,97.8857422" id="Path-5" fill="#403D3D"></path>
            <polyline id="Path-6" fill="#403D3D" points="338.90332 81.4208984 345.794922 90.0341797 356.938477 73.1806641 358.225586 99.4404297 338.90332 99.4404297"></polyline>
            <polyline id="Path-7" fill="#403D3D" points="357.69043 72.4951172 365.250977 60.4228516 385.636719 81.1552734 400.198242 97.6943359 378.749023 98.4794922 369.938477 82.7363281 365.250977 75.1533203 358.725586 72.4951172"></polyline>
            <polyline id="Path-8" fill="#403D3D" points="408.384766 88.9404297 416.870117 77.2041016 423.686523 87.0244141 434.09668 73.5483398 438.87793 75.3662109 446.654297 73.5483398 443.34375 62.5126953 455.208984 47.8916016 475.261719 99.2050781 454.260742 98.9433594 451.131836 88.9404297 428.735352 88.9287109 425.506836 97.6533203 406.250977 97.9033203"></polyline>
            <path d="M481.173828,71.8535156 L490.833984,84.6132812 L499.208984,66.3164062 L501.366211,76.8544922 C501.366211,76.8544922 503.821289,82.4023438 504.856445,82.4023438 C505.891602,82.4023438 514.77832,83.4726562 514.77832,83.4726562 L522.355469,79.1113281 L526.456055,70.8232422 L541.949219,77.5927734 L539.245117,87.7128906 L531.405273,96.9599609 L517.395508,100.088867 L504.146484,100.088867 L490.985352,94.2431641 L483.505859,84.6591797 L480.650391,76.7792969" id="Path-9" fill="#403D3D"></path>
            <polyline id="Path-10" fill="#403D3D" points="515.564453 47.0996094 520.013672 37.1894531 533.97168 55.4111328 525.870117 56.9814453 521.269531 51.9560547 515.681641 48.8105469"></polyline>
            <polyline id="Path-11" fill="#403D3D" points="558.097656 76.4130859 564.925781 82.6074219 578.772461 60.5595703 583.55957 66.6660156 598.552734 39.1455078 607.363281 48.5556641 600.745117 57.2675781 623.851562 97.6005859 599.634766 98.5478516 586.560547 72.5976562 576.290039 82.6308594 576.02832 98.1474609 555.946289 98.1474609 556.121094 75.0292969"></polyline>
            <polyline id="Path-12" fill="#403D3D" points="635.270508 80.1289062 644.070312 91.2607422 653.992188 58.7509766 653.829102 46.6005859 655.150773 46.8113909 656.712891 47.0605469 660.737305 36.3955078 667.443359 48.0556641 655.887695 48.7011719 655.701172 58.3847656 671.793945 58.3847656 678.487305 69.7890625 654.357422 70.7255859 654.357422 84.3115234 688.444336 84.3115234 688.880859 98.1357422 634.991211 98.484375"></polyline>
            <polyline id="Path-13" fill="#403D3D" points="703.390625 75.4755859 714.981445 59.2724609 720.413086 66.7636719 724.15332 60.9189453 734.307617 60.9941406 740.140625 57.7783203 740.140625 52.3574219 737.97168 48.3154297 729.469727 47.3798828 736.186523 35.015625 756.740234 65.1650391 749.173828 68.9042969 746.015625 70.125 752.733398 75.5224609 758.891602 85.5957031 764.713867 97.2734375 765.672852 99.4306641 744.125 99.1689453 729.928711 74.6269531 726.288086 72.8818359 723.770508 72.8818359 722.985352 97.7099609 703.118164 98.2333984 702.943359 77.9414062"></polyline>
            <text id="HIKETRACKER" stroke-width="4" font-family="Arial-Black, Arial Black" font-size="90" font-weight="700" letter-spacing="3.21428561" fill-opacity="0" fill="#FFFFFF">
                <tspan x="0" y="99">HIKETRACKER</tspan>
            </text>
        </g>
    </g>
</svg>